<?xml version="1.0" encoding="iso-8859-1"?>
<!-- Generator: Adobe Illustrator 19.0.0, SVG Export Plug-In . SVG Version: 6.00 Build 0)  -->
<svg version="1.1" id="Layer_1" xmlns="http://www.w3.org/2000/svg" xmlns:xlink="http://www.w3.org/1999/xlink" x="0px" y="0px"
	 viewBox="0 0 512 512" style="enable-background:new 0 0 512 512;" xml:space="preserve">
<g>
	<path style="fill:#73A1FB;" d="M267.201,471.047c3.22,0,5.828-2.609,5.828-5.828v-79.466c0-3.22-2.609-5.828-5.828-5.828H106.643
		V46.781c0-3.22-2.609-5.828-5.828-5.828H5.828C2.609,40.953,0,43.561,0,46.781v418.438c0,3.22,2.609,5.828,5.828,5.828H267.201z"/>
	<path style="fill:#73A1FB;" d="M319.925,471.047h94.366c3.22,0,5.828-2.609,5.828-5.828V311.254c0-7.23,0.622-14.322,1.735-19.9
		c5.754-27.041,27.757-43.184,58.867-43.184c9.934,0,17.602,1.147,24.407,2.387c1.707,0.315,3.45-0.152,4.779-1.259
		c1.327-1.107,2.094-2.746,2.094-4.474v-88.778c0-2.816-2.014-5.232-4.786-5.733c-7.339-1.336-12.16-1.336-20.91-1.336
		c-27.54,0-60.713,15.392-79.662,49.289l-2.054-36.954c-0.17-3.089-2.725-5.504-5.819-5.504h-81.332
		c-1.595,0-3.119,0.653-4.22,1.807c-1.1,1.154-1.679,2.707-1.604,4.299c1.308,27.461,2.478,55.747,2.478,99.675v203.634
		C314.096,468.439,316.707,471.047,319.925,471.047z"/>
</g>
<g>
</g>
<g>
</g>
<g>
</g>
<g>
</g>
<g>
</g>
<g>
</g>
<g>
</g>
<g>
</g>
<g>
</g>
<g>
</g>
<g>
</g>
<g>
</g>
<g>
</g>
<g>
</g>
<g>
</g>
</svg>
